PathFileType	4	(X/Y/Z)	c:/Users/goper/Files/vsCode/490R/osim_files/C07/C07_SSWS_01.trc
DataRate	CameraRate	NumFrames	NumMarkers	Units                	OrigDataRate	OrigDataStartFrame	OrigNumFrames
250.00	250.00	6	36	mm	250.0	1933	3092
                Frame#	Time	LPSIS			LASIS			LTH1			LTH2			LTH3			LTH4			LLFE			LMFE			LSH1			LSH2			LSH3			LSH4			LLMAL			LMMAL			LCAL			LMTP5			LTOE			LMTP1			RPSIS			RASIS			RTH1			RTH2			RTH3			RTH4			RLFE			RMFE			RSH1			RSH2			RSH3			RSH4			RLMAL			RMMAL			RCAL			RMTP1			RTOE			RMTP5		
		X1	Y1	Z1	X2	Y2	Z2	X3	Y3	Z3	X4	Y4	Z4	X5	Y5	Z5	X6	Y6	Z6	X7	Y7	Z7	X8	Y8	Z8	X9	Y9	Z9	X10	Y10	Z10	X11	Y11	Z11	X12	Y12	Z12	X13	Y13	Z13	X14	Y14	Z14	X15	Y15	Z15	X16	Y16	Z16	X17	Y17	Z17	X18	Y18	Z18	X19	Y19	Z19	X20	Y20	Z20	X21	Y21	Z21	X22	Y22	Z22	X23	Y23	Z23	X24	Y24	Z24	X25	Y25	Z25	X26	Y26	Z26	X27	Y27	Z27	X28	Y28	Z28	X29	Y29	Z29	X30	Y30	Z30	X31	Y31	Z31	X32	Y32	Z32	X33	Y33	Z33	X34	Y34	Z34	X35	Y35	Z35	X36	Y36	Z36

1933	7.72800	540.65955	1016.32147	295.74356	374.50415	998.69226	373.72183	0.00000	0.00000	0.00000	0.00000	0.00000	0.00000	291.57324	672.21191	428.43451	265.50827	776.67169	412.69913	267.04028	558.31378	405.55313	256.63669	544.31738	290.68756	364.05328	415.36447	419.68988	397.95322	382.05951	404.21689	325.24536	400.28192	410.98181	0.00000	0.00000	0.00000	486.17291	226.96677	368.41251	444.43823	226.18274	301.21625	561.74896	202.74742	314.84088	426.49753	96.40725	409.72690	367.70490	73.63354	361.98563	395.53943	73.76097	307.68307	534.39685	1028.15247	194.41974	370.56879	993.88550	118.04263	428.09998	844.52661	66.63434	427.00705	761.88306	71.99671	434.21594	680.49854	81.88815	357.49533	760.32397	104.93161	466.99887	506.80255	125.89957	464.60037	518.33759	236.26456	541.49060	328.49890	126.71598	514.91266	278.12369	124.97472	480.24643	326.85480	123.94993	484.58365	283.91861	129.40205	543.94598	106.68989	184.43579	510.44638	121.33165	257.84265	592.19495	55.89896	233.37085	383.43793	44.60524	258.39569	359.70123	55.87520	210.05846	407.82568	42.62378	150.65462
1934	7.73200	536.89594	1016.49902	295.81577	370.64395	999.04260	373.58264	0.00000	0.00000	0.00000	0.00000	0.00000	0.00000	286.46936	672.81012	427.94714	260.78049	777.43158	411.97339	261.26587	558.87317	404.59296	251.49789	544.93591	290.13580	356.64059	413.66998	419.28473	389.75323	379.99112	403.92792	317.34119	399.50085	410.50320	0.00000	0.00000	0.00000	474.89468	223.02348	368.23782	433.35535	223.06165	301.01358	550.11212	196.89886	314.90140	412.42566	94.02397	409.72665	352.70074	72.66914	361.42587	380.77307	72.10464	307.19760	530.70972	1028.25708	194.43050	367.02908	993.73785	117.87784	424.70993	844.24976	66.72036	424.27704	761.82788	71.90258	431.91992	680.37561	81.74461	354.77942	760.09509	104.78832	465.00574	506.90189	126.11393	462.27707	518.47668	236.14857	540.20990	328.88950	126.89392	513.88367	278.47192	125.21072	479.12665	327.02286	124.02814	483.53488	284.10474	129.60451	543.74084	107.11713	184.57771	510.14929	121.54372	257.95108	592.13171	56.38038	233.39323	383.34473	44.62106	258.46494	360.30710	55.59138	210.04628	407.82080	42.65585	150.68408
1935	7.73600	533.09290	1016.66003	295.92346	366.80408	999.17596	373.45908	0.00000	0.00000	0.00000	0.00000	0.00000	0.00000	281.39072	673.54523	427.36990	256.13559	778.10547	411.18179	255.98029	559.53192	403.95331	246.63092	545.46472	289.61786	349.07727	411.91714	419.03000	381.68878	377.85046	403.77838	309.65002	398.80737	410.19397	0.00000	0.00000	0.00000	463.50497	219.00343	368.04547	422.05768	220.06277	300.84000	538.41455	191.06187	314.97421	397.35574	91.57462	409.27350	337.84543	71.83724	360.99921	365.89478	70.56893	306.87570	527.02136	1028.29016	194.48651	363.48959	993.58002	117.71822	421.29187	843.94464	66.81500	421.52814	761.75269	71.82016	429.62268	680.23309	81.60901	352.01205	759.80127	104.73670	463.05704	506.95935	126.29968	460.50049	518.62671	236.32840	538.88239	329.22348	127.19654	512.94177	278.85422	125.40311	477.89197	327.16620	124.21281	482.50626	284.28891	129.74364	543.46228	107.51323	184.76540	509.85577	121.74523	258.05212	592.08594	56.84065	233.43640	383.24753	44.61090	258.42471	360.20010	55.56381	210.04240	407.77536	42.68092	150.72050
1936	7.74000	529.32477	1016.75244	295.97662	363.00787	999.30206	373.31372	0.00000	0.00000	0.00000	0.00000	0.00000	0.00000	276.69290	674.10571	426.72168	251.61322	778.77954	410.47089	250.99498	560.06543	403.38293	241.76778	545.90369	289.04581	341.86075	410.12109	418.66586	373.19791	375.50290	403.51682	301.80466	397.82504	409.76501	0.00000	0.00000	0.00000	452.14923	214.97552	367.93604	408.47864	217.36502	299.78287	526.43988	185.07672	315.17307	382.75244	89.13968	408.98260	322.52887	71.00168	360.50995	351.37509	68.77898	306.68863	522.36688	1027.92102	195.29272	359.94785	993.40967	117.56409	417.85208	843.61475	66.91487	418.75769	761.65894	71.75048	427.30835	680.07513	81.49425	349.29962	759.53528	104.63982	461.21127	507.13062	126.40564	458.65219	518.67664	236.43626	537.92212	329.79944	127.17555	511.93765	279.20294	125.54902	476.90598	327.51431	124.02175	481.50250	284.50467	129.82140	543.16895	107.92715	184.99991	509.56152	121.94050	258.15591	592.01398	57.22008	233.49159	386.12976	42.58951	259.84711	360.09402	55.50500	210.08833	407.77063	42.69737	150.77876
1937	7.74400	525.44916	1016.81555	296.06580	358.97571	999.45233	373.17712	0.00000	0.00000	0.00000	0.00000	0.00000	0.00000	271.81979	674.56525	426.20639	247.15761	779.47565	409.85065	246.07751	560.50085	402.71906	236.88367	546.21399	288.53424	334.33810	408.26273	418.37054	365.19818	373.17337	403.36230	293.92398	396.81387	409.30200	0.00000	0.00000	0.00000	440.65118	210.96960	367.68268	399.12125	213.88786	300.40988	515.00299	178.40372	315.77057	368.09674	86.74050	408.71234	307.59781	70.15538	360.11884	336.50449	67.19118	306.35123	518.60962	1027.91052	195.37219	356.40152	993.22461	117.41573	414.39685	843.26379	67.01662	415.96326	761.54834	71.69458	424.97141	679.90491	81.39709	346.44968	759.20898	104.69041	459.28928	507.24750	126.56801	456.73911	518.86847	236.57880	536.58209	330.10785	127.41608	511.06052	279.52127	125.59969	475.70831	327.60349	124.25657	480.53641	284.68445	129.97398	542.88812	108.34557	185.17039	509.26193	122.13380	258.27261	591.86603	57.54164	233.61246	382.19415	43.31466	258.90021	360.00775	55.43363	210.11752	407.74075	42.69388	150.78847
1938	7.74800	521.53790	1016.77533	296.18625	355.02875	999.48370	373.07150	0.00000	0.00000	0.00000	0.00000	0.00000	0.00000	266.94525	675.16492	425.96399	242.54138	780.03363	409.04504	240.94031	560.89111	402.26520	232.58083	546.35199	288.08725	326.95645	406.19479	418.15250	356.86435	371.71552	405.38577	286.00427	395.90564	408.80243	0.00000	0.00000	0.00000	428.82214	206.80034	367.61575	387.51990	210.78955	300.08740	501.81201	173.26013	315.12283	353.33905	84.52362	408.55710	292.57718	69.42578	359.69550	321.20255	65.82260	305.74829	514.87415	1027.83154	195.44989	352.84805	993.02252	117.27341	410.93253	842.89569	67.11684	413.14218	761.42200	71.65349	422.59613	679.72571	81.32909	343.73569	758.90991	104.68709	457.47128	507.30453	126.68980	454.74396	518.86462	236.76320	535.34283	330.39609	127.50056	510.00974	279.78503	125.76982	474.49161	327.72110	124.35860	479.47568	284.82657	130.10814	542.52820	108.70060	185.35147	508.95255	122.32945	258.41241	591.61029	57.80173	233.79359	383.52637	44.25689	258.79800	359.98041	55.38090	210.10197	407.74353	42.67432	150.82880
